<svg width="15" height="15" viewBox="0 0 15 15" fill="none" xmlns="http://www.w3.org/2000/svg">
<path fill-rule="evenodd" clip-rule="evenodd" d="M3.37645 14.3105H0.403549V5.57251H3.37645V14.3105Z" fill="white"/>
<path fill-rule="evenodd" clip-rule="evenodd" d="M1.88116 3.63074H1.86427C0.977094 3.63074 0.403549 2.98317 0.403549 2.17387C0.403549 1.34746 0.994562 0.718018 1.89858 0.718018C2.80259 0.718018 3.3593 1.34746 3.37645 2.17387C3.37645 2.98317 2.80259 3.63074 1.88116 3.63074Z" fill="white"/>
<path fill-rule="evenodd" clip-rule="evenodd" d="M14.2779 14.3103H11.3566V9.74281C11.3566 8.59557 10.9339 7.81272 9.87629 7.81272C9.06918 7.81272 8.58844 8.34047 8.3773 8.85021C8.30006 9.03289 8.2811 9.28741 8.2811 9.54257V14.3105H5.35932C5.35932 14.3105 5.39783 6.5743 5.35932 5.77321H8.2811V6.98244C8.66884 6.40114 9.36329 5.57251 10.9144 5.57251C12.8368 5.57251 14.278 6.79296 14.278 9.41525L14.2779 14.3103Z" fill="white"/>
</svg>
