<svg width="14" height="12" viewBox="0 0 14 12" fill="none" xmlns="http://www.w3.org/2000/svg">
<path fill-rule="evenodd" clip-rule="evenodd" d="M7.18082 3.50123L7.20875 3.96316L6.74333 3.9066C5.04919 3.68977 3.56916 2.95445 2.31252 1.71948L1.69817 1.10671L1.53992 1.55922C1.20482 2.56793 1.41891 3.63321 2.11704 4.34968C2.48938 4.74563 2.40561 4.80219 1.76332 4.56651C1.53992 4.49109 1.34445 4.43453 1.32583 4.46281C1.26067 4.5288 1.48407 5.38668 1.66093 5.72606C1.90295 6.19742 2.3963 6.65935 2.93619 6.93274L3.3923 7.14957L2.85241 7.159C2.33114 7.159 2.31252 7.16842 2.36837 7.3664C2.55454 7.97917 3.2899 8.62965 4.10905 8.91246L4.68617 9.11044L4.18351 9.41211C3.43884 9.84576 2.56385 10.0909 1.68886 10.1097C1.26998 10.1191 0.925568 10.1569 0.925568 10.1851C0.925568 10.2794 2.06119 10.8073 2.72209 11.0147C4.70478 11.6275 7.05981 11.3635 8.82841 10.3171C10.085 9.57237 11.3417 8.09229 11.9281 6.65935C12.2446 5.89575 12.5611 4.50052 12.5611 3.83118C12.5611 3.39753 12.589 3.34097 13.1103 2.82247C13.4175 2.5208 13.706 2.19084 13.7619 2.09657C13.855 1.91745 13.8456 1.91745 13.3709 2.07772C12.5797 2.36053 12.468 2.32283 12.859 1.8986C13.1475 1.59693 13.4919 1.05015 13.4919 0.889886C13.4919 0.861605 13.3523 0.90874 13.1941 0.993586C13.0265 1.08786 12.6542 1.22927 12.3749 1.31411L11.8723 1.47437L11.4162 1.16328C11.1648 0.993586 10.8111 0.805041 10.6249 0.748478C10.1502 0.616497 9.42415 0.635351 8.99596 0.786187C7.83241 1.21041 7.09705 2.30397 7.18082 3.50123Z" fill="white"/>
</svg>
