<svg width="26" height="26" viewBox="0 0 26 26" fill="none" xmlns="http://www.w3.org/2000/svg">
<path fill-rule="evenodd" clip-rule="evenodd" d="M22.2966 0.586417C22.1914 0.477014 22.0793 0.374543 21.9608 0.279646C21.7375 0.101587 21.4611 0.00317124 21.1755 0C20.8112 0 20.5464 0.159521 20.3901 0.279646C20.2655 0.373938 20.1421 0.498583 20.0543 0.586417L7.87712 12.7636L7.8642 12.7752C7.80801 12.8301 7.62976 13.0019 7.52514 13.2338C7.42116 13.4663 7.41082 13.7143 7.4076 13.7931L7.40695 13.8099L7.23387 16.7536C7.22085 16.9186 7.21869 17.0843 7.22741 17.2496C7.2442 17.4575 7.30878 17.7921 7.59037 18.0736C7.87195 18.3552 8.20585 18.4192 8.41445 18.436C8.58237 18.4495 8.7716 18.4385 8.91045 18.4295L11.8535 18.2571L11.8709 18.2558C11.9491 18.2525 12.1971 18.2429 12.4296 18.1382C12.6621 18.0342 12.8339 17.8554 12.8881 17.7992L12.9011 17.7862L25.0776 5.60971C25.1654 5.52187 25.2894 5.39788 25.3844 5.27388C25.5038 5.11694 25.664 4.85215 25.664 4.48854C25.664 4.12429 25.5038 3.8595 25.3844 3.70321C25.2894 3.57856 25.1654 3.45521 25.0776 3.36737L22.2966 0.586417ZM9.33412 14.0462L21.1748 2.20487L23.4578 4.48854L11.6165 16.3299L9.19074 16.472L9.33282 14.0462H9.33412Z" fill="#ECECEC"/>
<path d="M11.5313 3.09546H6.26649C5.10593 3.09546 4.13847 3.09546 3.36993 3.19879C2.55941 3.30794 1.82639 3.54754 1.23868 4.13525C0.650325 4.72425 0.410721 5.45663 0.301575 6.26715C0.198242 7.03569 0.198242 8.00315 0.198242 9.16371V19.6314C0.198242 20.7919 0.198242 21.7594 0.301575 22.5279C0.410721 23.3391 0.650325 24.0715 1.23803 24.6592C1.82703 25.2475 2.55941 25.4871 3.36993 25.5963C4.13847 25.6996 5.10593 25.6996 6.26649 25.6996H16.7342C17.8947 25.6996 18.8622 25.6996 19.6307 25.5963C20.4412 25.4871 21.1743 25.2475 21.762 24.6598C22.3503 24.0708 22.5899 23.3391 22.6991 22.5279C22.8024 21.7594 22.8024 20.7919 22.8024 19.6314V14.5461C22.8024 14.2451 22.8024 14.0946 22.7533 13.9758C22.6876 13.8179 22.562 13.6925 22.4039 13.6271C22.2851 13.5773 22.1346 13.5773 21.8337 13.5773C21.5327 13.5773 21.3822 13.5773 21.2634 13.6264C21.1055 13.6921 20.98 13.8178 20.9146 13.9758C20.8649 14.0946 20.8649 14.2451 20.8649 14.5461V19.5642C20.8649 20.8094 20.863 21.6457 20.779 22.2702C20.6989 22.8657 20.5601 23.1208 20.3915 23.2894C20.2236 23.4573 19.9685 23.5961 19.3724 23.6762C18.7485 23.7602 17.9122 23.7621 16.667 23.7621H6.33366C5.08849 23.7621 4.25214 23.7602 3.62762 23.6762C3.03216 23.5961 2.77705 23.4573 2.60849 23.2887C2.44058 23.1208 2.30172 22.8657 2.22164 22.2696C2.13768 21.6457 2.13574 20.8094 2.13574 19.5642V9.23087C2.13574 7.98571 2.13768 7.14935 2.22164 6.52483C2.30172 5.92938 2.44057 5.67427 2.60914 5.50571C2.77705 5.33779 3.03216 5.19894 3.62826 5.11885C4.25214 5.0349 5.08849 5.03296 6.33366 5.03296H11.5313C11.8323 5.03296 11.9834 5.03296 12.1016 4.98388C12.2598 4.91833 12.3854 4.79266 12.451 4.63448C12.5001 4.51565 12.5001 4.36517 12.5001 4.06421C12.5001 3.76325 12.5001 3.61277 12.451 3.49394C12.3855 3.33613 12.26 3.21072 12.1022 3.14519C11.9828 3.09546 11.8323 3.09546 11.5313 3.09546Z" fill="#ECECEC"/>
</svg>
