<svg width="31" height="29" viewBox="0 0 31 29" fill="none" xmlns="http://www.w3.org/2000/svg">
<path d="M27.2327 9.74042V13.1949H18.2359C17.3281 13.1949 16.5675 13.9051 16.5675 14.7759V18.3303C16.5675 19.2011 17.3281 19.9113 18.2359 19.9113H27.2327V23.3658C27.2327 23.8078 26.8741 24.1544 26.3916 24.1544H5.06133C4.57889 24.1544 4.22029 23.8078 4.22029 23.3658V8.69118C4.56869 8.85612 4.96086 8.95181 5.37502 8.95181H5.3751C10.1949 8.94777 15.3931 8.94924 20.1384 8.95058C22.3491 8.95121 24.4616 8.95181 26.3916 8.95181C26.8741 8.95181 27.2327 9.29843 27.2327 9.74042ZM18.2357 14.5797H18.2359H27.2327V18.5265H18.2359C18.1658 18.5265 18.113 18.5037 18.0785 18.4711C18.0444 18.4389 18.0222 18.3918 18.0222 18.3303V14.7759C18.0222 14.7144 18.0444 14.6672 18.0785 14.6349C18.113 14.6024 18.1658 14.5795 18.2357 14.5797ZM5.37502 4.01255C3.94589 4.01255 2.76557 5.1191 2.76557 6.48218V23.3658C2.76557 24.5648 3.80598 25.5392 5.06133 25.5392H26.3916C27.647 25.5392 28.6874 24.5648 28.6874 23.3658V9.74042C28.6874 8.54144 27.647 7.56699 26.3916 7.56699H24.9232V4.70496C24.9232 4.33422 24.5741 4.01258 24.1959 4.01255H5.37502ZM5.37502 5.39736H23.4685V7.56699H5.37502C4.7188 7.56699 4.22029 7.08826 4.22029 6.48218C4.22029 5.87609 4.7188 5.39736 5.37502 5.39736ZM21.3727 15.2683C20.63 15.2683 20.018 15.8382 20.018 16.5531C20.018 17.268 20.63 17.8379 21.3727 17.8379C22.1154 17.8379 22.7275 17.268 22.7275 16.5531C22.7275 15.8382 22.1154 15.2683 21.3727 15.2683Z" fill="#A7A8AB" stroke="#A7A8AB" stroke-width="0.2"/>
</svg>
