<svg width="63" height="62" viewBox="0 0 63 62" fill="none" xmlns="http://www.w3.org/2000/svg">
<circle cx="31.8289" cy="31" r="30" fill="white" stroke="#CBD0DC" stroke-width="2"/>
<path d="M26.0896 40.2786H23.6623C19.9456 40.0131 18.277 37.1561 18.277 34.6151C18.277 32.0741 19.9457 29.2044 23.5991 28.9515C24.1175 28.901 24.5726 29.3055 24.6105 29.8365C24.6484 30.3548 24.2566 30.8099 23.7256 30.8478C21.2731 31.0248 20.1733 32.8705 20.1733 34.6277C20.1733 36.3849 21.2731 38.2306 23.7256 38.4076H26.0896C26.6079 38.4076 27.0378 38.8375 27.0378 39.3558C27.0378 39.8741 26.6079 40.2786 26.0896 40.2786Z" fill="#292D32"/>
<path d="M37.7323 40.2787C37.707 40.2787 37.6944 40.2787 37.6691 40.2787C37.1508 40.2787 36.6704 39.8488 36.6704 39.3305C36.6704 38.7869 37.0749 38.3824 37.6059 38.3824C39.1608 38.3824 40.5514 37.8388 41.6386 36.8654C43.6108 35.1461 43.7372 32.6683 43.2062 30.9237C42.6753 29.1918 41.1962 27.207 38.6172 26.891C38.2 26.8404 37.8713 26.5243 37.7955 26.1072C37.2898 23.0731 35.659 20.9746 33.1812 20.2161C30.6276 19.4196 27.6441 20.2034 25.7857 22.1503C23.9779 24.0339 23.5608 26.676 24.61 29.5837C24.787 30.0767 24.5342 30.6203 24.0412 30.7973C23.5482 30.9743 23.0046 30.7214 22.8276 30.2284C21.5507 26.6634 22.1323 23.2501 24.4205 20.8482C26.7592 18.3956 30.5138 17.4222 33.7375 18.4083C36.6957 19.3185 38.7815 21.7584 39.54 25.1464C42.119 25.7279 44.1923 27.6874 45.014 30.3927C45.9116 33.3383 45.1025 36.3723 42.8902 38.2939C41.4869 39.5581 39.6538 40.2787 37.7323 40.2787Z" fill="#292D32"/>
<path d="M31.8286 43.9954C29.2876 43.9954 26.911 42.6427 25.6089 40.4557C25.4698 40.2408 25.3307 39.9879 25.217 39.7098C24.7871 38.8122 24.5596 37.7883 24.5596 36.7263C24.5596 32.7189 27.8212 29.4573 31.8286 29.4573C35.8361 29.4573 39.0977 32.7189 39.0977 36.7263C39.0977 37.8009 38.8702 38.8122 38.4151 39.7477C38.3139 39.9879 38.1749 40.2408 38.0232 40.481C36.7463 42.6427 34.3696 43.9954 31.8286 43.9954ZM31.8286 31.3536C28.8704 31.3536 26.4558 33.7681 26.4558 36.7263C26.4558 37.5101 26.6202 38.2434 26.9362 38.9134C27.0374 39.1283 27.1258 39.3053 27.227 39.4696C28.1878 41.1004 29.945 42.0991 31.816 42.0991C33.687 42.0991 35.4442 41.1004 36.3923 39.4949C36.5061 39.3053 36.6073 39.1283 36.6831 38.9513C37.0245 38.256 37.1888 37.5228 37.1888 36.739C37.2014 33.7681 34.7868 31.3536 31.8286 31.3536Z" fill="#292D32"/>
<path d="M31.1079 38.9261C30.8677 38.9261 30.6276 38.8376 30.4379 38.6479L29.1863 37.3964C28.8197 37.0298 28.8197 36.423 29.1863 36.0563C29.553 35.6897 30.1598 35.6897 30.5264 36.0563L31.1332 36.6632L33.1559 34.7922C33.5478 34.4382 34.142 34.4635 34.4959 34.8427C34.8499 35.222 34.8246 35.8288 34.4454 36.1828L31.7527 38.6732C31.563 38.8376 31.3355 38.9261 31.1079 38.9261Z" fill="#292D32"/>
</svg>
